<?xml version="1.0" standalone="no"?>
<!DOCTYPE svg PUBLIC "-//W3C//DTD SVG 20010904//EN"
 "http://www.w3.org/TR/2001/REC-SVG-20010904/DTD/svg10.dtd">
<svg version="1.0" xmlns="http://www.w3.org/2000/svg"
 width="460.000000pt" height="460.000000pt" viewBox="0 0 460.000000 460.000000"
 preserveAspectRatio="xMidYMid meet">
<metadata>
Created by potrace 1.14, written by Peter Selinger 2001-2017
</metadata>
<g transform="translate(0.000000,460.000000) scale(0.100000,-0.100000)"
fill="#000000" stroke="none">
<path d="M0 3597 l0 -1004 35 -19 c19 -10 35 -22 35 -27 0 -15 -32 -69 -37
-63 -8 7 -33 -13 -33 -26 0 -6 6 -8 14 -5 15 6 36 -97 36 -182 0 -52 -6 -61
-28 -39 -6 6 -15 8 -19 4 -8 -8 46 -55 65 -56 17 0 16 135 -2 217 -12 56 -12
66 5 103 l19 41 57 -31 c101 -54 97 -48 79 -129 -9 -38 -16 -80 -15 -93 0 -13
8 14 18 59 9 45 19 84 21 87 3 2 24 -5 48 -16 56 -27 58 -62 6 -96 l-37 -24 7
27 c4 15 9 41 12 59 4 26 3 27 -5 10 -5 -12 -12 -42 -16 -67 -6 -38 -12 -49
-36 -59 -16 -7 -29 -18 -29 -25 0 -7 -9 -17 -20 -23 -23 -13 -27 -40 -5 -40
18 0 18 -6 5 -85 -5 -33 -12 -78 -15 -100 -4 -24 -14 -46 -27 -55 -34 -25 -68
-62 -68 -75 0 -6 24 -21 53 -33 l53 -22 -15 -49 c-12 -35 -18 -44 -23 -33 -4
11 -7 5 -7 -17 -1 -25 -13 -48 -44 -85 -61 -72 -89 -115 -85 -127 2 -6 22 13
45 42 53 69 97 119 104 119 5 0 42 -85 44 -100 0 -3 4 -11 9 -18 4 -7 9 -25
11 -40 1 -14 7 -28 13 -30 5 -1 8 -11 5 -22 -3 -12 2 -20 14 -24 10 -3 -4 -3
-32 0 -27 3 -61 12 -75 19 -14 7 -44 15 -67 19 -23 3 -48 9 -57 12 -9 3 -16 2
-16 -4 0 -5 23 -15 51 -22 l50 -12 -6 -87 c-3 -47 -10 -162 -15 -256 -8 -154
-12 -180 -44 -280 -20 -60 -36 -121 -35 -135 0 -15 7 -3 16 30 8 30 28 96 44
146 23 71 31 116 35 205 2 63 9 161 14 219 6 58 10 113 10 123 0 9 5 17 12 17
8 0 9 -26 5 -93 -18 -264 -19 -282 -8 -267 6 8 11 31 11 51 0 20 7 58 15 85
16 53 19 81 5 49 -11 -25 -13 35 -4 113 6 42 10 52 25 52 24 0 24 -21 3 -84
-9 -26 -14 -49 -11 -52 2 -3 13 25 23 61 15 51 23 65 39 66 45 3 50 5 47 19
-7 30 -41 125 -42 115 -1 -5 -12 17 -25 49 -22 53 -24 69 -19 138 4 43 11 78
15 78 7 0 71 -27 87 -36 2 -1 -6 -36 -17 -76 -12 -41 -21 -78 -21 -84 0 -17
39 71 50 114 7 25 17 42 25 42 18 0 20 55 5 95 -5 14 -6 24 -1 21 4 -3 16 38
25 92 10 53 20 109 22 123 4 20 13 28 35 33 35 7 37 26 10 79 -18 35 -18 41
-5 72 17 40 17 45 5 45 -5 0 -13 -15 -17 -32 l-7 -33 -15 33 c-9 17 -19 32
-24 32 -10 0 -11 54 -1 63 3 4 25 -8 47 -26 57 -46 88 -58 103 -41 15 16 75
174 99 262 9 34 19 60 22 57 5 -5 3 -18 -58 -360 -21 -115 -46 -257 -55 -315
-10 -58 -23 -136 -30 -175 l-14 -70 6 90 c3 50 16 146 29 215 13 69 24 132 23
140 -2 28 -38 -144 -53 -250 -9 -58 -20 -127 -25 -155 -5 -27 -15 -106 -21
-175 -6 -69 -20 -181 -31 -249 -11 -68 -18 -130 -15 -137 3 -7 -11 -86 -30
-176 -19 -90 -39 -185 -44 -213 -6 -27 -21 -99 -35 -160 -24 -107 -72 -363
-94 -496 -6 -37 -11 -85 -11 -108 l0 -41 79 0 c54 0 81 4 84 13 4 9 6 9 6 0 1
-9 18 -13 50 -13 l50 0 -1 60 c-1 33 0 62 3 64 2 2 39 31 82 65 42 34 77 64
77 67 0 3 -27 -16 -61 -43 -88 -69 -99 -76 -105 -70 -11 10 5 25 89 83 45 31
86 63 90 71 5 7 13 10 19 7 6 -4 8 -3 5 3 -8 13 30 32 70 35 7 1 10 5 8 9 -6
8 19 30 37 33 7 1 18 5 24 9 16 10 27 -6 63 -93 17 -41 57 -124 89 -185 44
-83 64 -111 80 -113 20 -3 19 1 -17 55 -69 104 -177 345 -164 366 3 6 1 7 -4
4 -16 -10 -52 98 -57 168 -2 33 -8 69 -12 79 -4 11 -4 17 2 14 15 -10 -1 229
-17 249 -13 16 -12 17 3 5 9 -8 22 -11 28 -7 6 4 10 -6 10 -24 0 -17 5 -31 11
-31 5 0 7 -5 4 -11 -11 -17 4 -81 17 -73 7 5 9 2 6 -8 -6 -15 2 -44 67 -223
19 -55 37 -108 40 -117 2 -9 20 -51 39 -92 20 -42 36 -77 36 -80 0 -9 71 -122
83 -131 7 -5 23 -26 34 -45 12 -20 31 -46 42 -59 11 -13 22 -28 24 -34 2 -7 8
-9 12 -4 5 4 -3 20 -17 35 -14 15 -23 33 -21 40 3 6 1 12 -4 12 -4 0 -19 18
-33 39 -13 22 -28 37 -34 34 -5 -4 -7 1 -3 11 4 9 1 26 -6 37 -10 16 -9 21 3
29 8 5 18 6 23 3 5 -3 1 9 -8 26 -9 19 -20 29 -27 25 -6 -4 -8 -3 -5 4 9 14
-3 43 -14 36 -5 -3 -6 3 -2 12 5 13 3 15 -7 9 -9 -5 -11 -4 -6 3 7 12 -84 203
-112 236 -10 11 -11 16 -4 12 9 -6 8 2 -4 25 -17 33 -18 33 -23 10 -5 -19 -11
-9 -30 50 -13 41 -26 80 -29 88 -3 9 -1 12 6 7 7 -4 1 23 -14 61 -73 194 -122
438 -154 772 -18 187 -13 626 9 786 11 77 22 178 26 225 4 47 18 128 31 180
41 164 83 353 93 416 5 33 18 81 29 105 11 24 23 55 27 69 11 41 65 183 77
205 12 20 27 48 88 160 38 72 170 272 220 334 95 121 280 307 415 419 50 41
92 76 94 78 3 3 -16 4 -42 3 -26 -1 -47 -6 -47 -10 0 -5 -6 -6 -13 -3 -8 3
-20 -2 -27 -11 -7 -8 -19 -15 -27 -15 -8 0 -12 -4 -9 -9 3 -5 -1 -12 -10 -15
-8 -3 -12 -2 -9 4 14 22 -15 8 -34 -16 -12 -15 -21 -23 -21 -19 0 4 -7 2 -15
-5 -8 -7 -12 -16 -9 -21 3 -5 2 -8 -3 -7 -4 1 -24 -8 -43 -21 -19 -13 -26 -20
-15 -17 45 15 -31 -41 -85 -62 -67 -26 -300 -95 -305 -90 -3 3 165 71 298 120
15 6 26 12 25 14 -4 3 -142 -37 -207 -60 -24 -9 -46 -14 -48 -12 -6 6 100 70
120 72 10 1 21 5 25 9 4 5 -2 5 -13 2 -19 -7 -19 -7 -1 8 10 8 23 12 28 9 5
-3 25 4 46 17 49 29 156 87 212 115 25 13 40 23 34 23 -18 1 -82 -27 -155 -69
-37 -21 -70 -36 -73 -33 -3 3 -8 -2 -12 -11 -3 -9 -10 -14 -14 -11 -5 3 -15
-1 -23 -9 -8 -8 -17 -13 -20 -10 -6 6 -122 -62 -220 -128 -32 -22 -61 -37 -64
-34 -4 3 -4 8 -2 9 69 57 143 106 152 100 7 -3 3 4 -8 16 -14 16 -15 22 -5 19
8 -2 14 3 12 10 -1 8 2 11 8 7 8 -5 7 -12 -2 -23 -12 -16 -11 -16 7 -3 11 8
36 29 55 47 19 17 71 52 114 77 77 45 78 46 40 43 -22 -2 -38 -8 -37 -14 2 -6
-4 -9 -11 -6 -8 3 -38 -11 -68 -30 -29 -20 -56 -36 -61 -36 -7 0 -80 -53 -97
-70 -3 -3 -39 -36 -81 -73 l-76 -67 13 57 c21 90 14 144 -23 197 l-33 46 -455
0 -455 0 0 -1003z m1305 950 c-16 -12 -50 -40 -74 -62 -25 -22 -42 -35 -38
-28 4 6 2 13 -4 15 -6 2 19 25 57 50 70 47 114 66 59 25z m355 -1 c0 -2 -8
-10 -17 -17 -16 -13 -17 -12 -4 4 13 16 21 21 21 13z m-156 -144 c2 -4 -8 -21
-24 -39 -24 -27 -29 -29 -33 -13 -3 11 1 17 12 16 8 0 16 6 17 14 0 8 2 18 2
23 2 9 19 9 26 -1z m-149 -62 c-14 -6 -16 -9 -5 -10 8 -2 20 -1 25 0 6 1 6 -2
2 -6 -4 -5 -18 -9 -30 -9 -13 0 -26 -10 -34 -25 -7 -14 -13 -21 -13 -15 0 5
-7 -1 -16 -13 -8 -12 -13 -26 -9 -31 3 -5 0 -13 -6 -16 -5 -4 -8 -13 -5 -20 3
-8 -4 -17 -15 -20 -11 -4 -19 -12 -18 -18 4 -34 -1 -38 -30 -23 -15 8 -37 15
-47 15 -72 0 -228 61 -207 82 5 5 40 15 78 23 39 8 126 33 195 55 114 36 187
53 135 31z m81 -2 c5 -7 3 -8 -6 -3 -9 6 -12 4 -8 -6 3 -8 0 -23 -7 -32 -11
-15 -13 -16 -18 -2 -4 8 -1 14 5 12 7 -1 13 5 14 13 3 34 8 38 20 18z m-54
-60 c-19 -19 -14 -32 6 -17 15 12 15 11 -1 -8 -17 -19 -62 -30 -51 -11 3 4 12
4 21 1 11 -4 14 -3 9 6 -7 11 9 41 22 41 3 0 1 -5 -6 -12z m-32 -63 c0 -2 -6
-8 -13 -14 -10 -8 -14 -7 -14 2 0 8 6 14 14 14 7 0 13 -1 13 -2z m-425 -15
c-3 -5 7 -12 22 -16 15 -3 42 -11 58 -17 17 -7 34 -11 38 -9 5 1 6 -2 2 -8 -4
-7 -13 -7 -28 1 -21 10 -21 9 -3 -5 21 -17 98 -31 121 -22 11 4 14 2 9 -6 -5
-8 -2 -9 9 -5 16 6 16 4 0 -26 -9 -17 -18 -37 -19 -42 -1 -6 -13 -28 -28 -49
-14 -21 -26 -43 -26 -47 0 -5 -9 -18 -19 -28 -19 -19 -19 -18 -36 23 -62 145
-79 176 -88 164 -6 -9 -7 -8 -3 5 3 10 -1 33 -8 52 -8 18 -12 36 -8 39 9 9 14
7 7 -4z m373 -40 c-7 -10 -14 -18 -15 -16 -6 6 9 36 18 36 5 0 4 -9 -3 -20z
m-175 -17 c3 -5 -6 -9 -19 -9 -13 -1 -24 2 -24 7 0 11 37 12 43 2z m146 -27
c-8 -6 -30 -35 -49 -63 -33 -53 -52 -73 -28 -30 42 73 73 115 82 110 5 -3 3
-11 -5 -17z m-107 -58 c-7 -7 -12 -8 -12 -2 0 14 12 26 19 19 2 -3 -1 -11 -7
-17z m-221 -94 c11 -54 30 -127 41 -161 11 -34 18 -67 15 -75 -3 -7 -6 -2 -6
10 -1 38 -23 20 -44 -37 -19 -48 -22 -52 -34 -35 -11 16 -13 12 -13 -30 0 -53
-18 -126 -31 -126 -5 0 -6 -7 -2 -16 3 -9 0 -20 -7 -24 -8 -5 -14 -24 -14 -43
-1 -19 -4 -33 -7 -31 -4 2 -9 -9 -12 -24 -9 -50 -16 -75 -23 -81 -4 -3 -4 8 0
24 3 17 13 71 22 120 8 50 18 97 21 105 3 8 7 29 9 45 1 17 10 75 18 130 8 55
17 147 21 205 6 110 13 156 21 148 2 -3 13 -49 25 -104z m35 59 c37 -87 53
-145 47 -173 -3 -16 -9 -27 -14 -24 -5 3 -6 16 -3 30 5 20 3 23 -12 18 -12 -4
-15 -3 -7 3 12 9 6 66 -7 58 -5 -3 -6 5 -2 17 3 13 1 19 -5 15 -7 -5 -9 0 -6
13 3 12 0 20 -7 20 -7 0 -9 8 -5 21 5 14 4 19 -4 15 -7 -5 -9 -1 -5 8 9 23 12
20 30 -21z m155 -36 c-10 -9 -11 -8 -5 6 3 10 9 15 12 12 3 -3 0 -11 -7 -18z
m34 -26 c-8 -17 -19 -33 -25 -36 -5 -3 -1 10 11 29 25 43 36 48 14 7z m-49
-17 c-4 -9 -9 -15 -11 -12 -3 3 -3 13 1 22 4 9 9 15 11 12 3 -3 3 -13 -1 -22z
m-16 -28 c0 -3 -4 -8 -10 -11 -5 -3 -10 -1 -10 4 0 6 5 11 10 11 6 0 10 -2 10
-4z m-79 -153 c-12 -20 -14 -14 -5 12 4 9 9 14 11 11 3 -2 0 -13 -6 -23z
m-224 -615 c-3 -8 -6 -5 -6 6 -1 11 2 17 5 13 3 -3 4 -12 1 -19z m-17 -72 c0
-2 -7 -7 -16 -10 -8 -3 -12 -2 -9 4 6 10 25 14 25 6z m-20 -36 c0 -5 -5 -10
-11 -10 -5 0 -7 5 -4 10 3 6 8 10 11 10 2 0 4 -4 4 -10z m-14 -96 l-13 -49 -4
38 c-3 21 -1 40 3 43 4 3 8 15 8 27 1 18 2 19 10 6 6 -9 4 -33 -4 -65z m-39
-86 c-3 -8 -6 -5 -6 6 -1 11 2 17 5 13 3 -3 4 -12 1 -19z m-13 -62 c-3 -21 -8
-35 -11 -32 -2 2 -1 20 3 40 3 21 8 35 11 32 2 -2 1 -20 -3 -40z m-17 -88 c-3
-8 -6 -5 -6 6 -1 11 2 17 5 13 3 -3 4 -12 1 -19z m-20 -320 c-3 -8 -6 -5 -6 6
-1 11 2 17 5 13 3 -3 4 -12 1 -19z m-293 -84 c9 -8 16 -26 16 -40 0 -13 4 -24
10 -24 5 0 7 -6 4 -14 -3 -8 0 -17 7 -22 8 -5 10 -3 4 6 -5 9 -4 11 4 6 9 -6
9 -11 0 -22 -7 -9 -8 -14 -3 -13 21 4 24 -2 9 -17 -22 -22 -64 -15 -205 32
-10 4 6 23 50 64 36 33 70 60 77 60 6 0 19 -7 27 -16z m-139 -144 c16 -26 -25
-203 -43 -185 -7 6 21 195 29 195 4 0 11 -4 14 -10z m59 -8 c8 -13 -24 -115
-41 -132 -13 -13 -14 -7 -8 55 4 39 9 73 12 78 6 10 31 9 37 -1z m92 -25 c7
-6 -37 -211 -47 -222 -6 -5 -9 -3 -9 7 0 8 -11 36 -25 61 l-24 47 19 46 c11
25 20 54 20 64 0 16 4 17 31 10 18 -5 33 -11 35 -13z m204 -33 c0 -8 -5 -12
-10 -9 -6 4 -8 11 -5 16 9 14 15 11 15 -7z m-3 -86 c-3 -7 -5 -2 -5 12 0 14 2
19 5 13 2 -7 2 -19 0 -25z m-289 -86 c6 -23 7 -43 4 -47 -3 -3 -1 -5 4 -5 5 0
10 -18 11 -40 0 -22 -2 -40 -7 -40 -6 0 -39 13 -125 50 -11 5 -32 11 -47 14
-16 4 -28 10 -28 15 0 9 69 69 125 108 28 20 30 20 42 3 7 -9 16 -36 21 -58z
m257 -32 c3 -5 1 -10 -4 -10 -6 0 -11 5 -11 10 0 6 2 10 4 10 3 0 8 -4 11 -10z
m-18 -62 c-3 -8 -6 -5 -6 6 -1 11 2 17 5 13 3 -3 4 -12 1 -19z m22 -46 c0 -14
-2 -13 -9 3 -5 12 -9 14 -9 6 -1 -8 -4 -12 -7 -8 -9 9 6 28 17 22 5 -4 9 -14
8 -23z m-29 -46 c0 -3 -4 -8 -10 -11 -5 -3 -10 -1 -10 4 0 6 5 11 10 11 6 0
10 -2 10 -4z m-343 -48 c-3 -7 -5 -2 -5 12 0 14 2 19 5 13 2 -7 2 -19 0 -25z
m300 -25 c-3 -10 -5 -2 -5 17 0 19 2 27 5 18 2 -10 2 -26 0 -35z m-10 -70 c-3
-10 -5 -2 -5 17 0 19 2 27 5 18 2 -10 2 -26 0 -35z m-10 -55 c-3 -8 -6 -5 -6
6 -1 11 2 17 5 13 3 -3 4 -12 1 -19z m-10 -70 c-3 -7 -5 -2 -5 12 0 14 2 19 5
13 2 -7 2 -19 0 -25z m-20 -150 c-3 -8 -6 -5 -6 6 -1 11 2 17 5 13 3 -3 4 -12
1 -19z m50 0 c-3 -8 -6 -5 -6 6 -1 11 2 17 5 13 3 -3 4 -12 1 -19z m-60 -50
c-3 -8 -6 -5 -6 6 -1 11 2 17 5 13 3 -3 4 -12 1 -19z m-10 -50 c-3 -8 -6 -5
-6 6 -1 11 2 17 5 13 3 -3 4 -12 1 -19z m190 -40 c-3 -7 -5 -2 -5 12 0 14 2
19 5 13 2 -7 2 -19 0 -25z m0 -40 c-3 -8 -6 -5 -6 6 -1 11 2 17 5 13 3 -3 4
-12 1 -19z m104 -45 c-8 -15 -10 -15 -11 -2 0 17 10 32 18 25 2 -3 -1 -13 -7
-23z m-101 -53 c0 -5 -5 -10 -11 -10 -5 0 -7 5 -4 10 3 6 8 10 11 10 2 0 4 -4
4 -10z m58 -24 c-1 -14 -5 -23 -9 -20 -7 4 0 44 7 44 2 0 3 -11 2 -24z m79
-18 c-3 -7 -5 -2 -5 12 0 14 2 19 5 13 2 -7 2 -19 0 -25z m-93 -44 c3 -8 2
-12 -4 -9 -6 3 -10 10 -10 16 0 14 7 11 14 -7z m-254 -24 c0 -5 -5 -10 -11
-10 -5 0 -7 5 -4 10 3 6 8 10 11 10 2 0 4 -4 4 -10z m237 -32 c-3 -7 -5 -2 -5
12 0 14 2 19 5 13 2 -7 2 -19 0 -25z m67 -134 c3 -8 2 -12 -4 -9 -6 3 -10 10
-10 16 0 14 7 11 14 -7z m-347 -16 c-3 -8 -6 -5 -6 6 -1 11 2 17 5 13 3 -3 4
-12 1 -19z m401 -169 c-3 -8 -7 -3 -11 10 -4 17 -3 21 5 13 5 -5 8 -16 6 -23z
m171 -14 c0 -5 -4 -3 -9 5 -5 8 -9 22 -9 30 0 16 17 -16 18 -35z m-343 -47
c-3 -46 -8 -117 -11 -158 -5 -54 -4 -71 4 -60 6 8 11 10 11 5 0 -16 -78 -90
-86 -82 -4 4 3 46 15 94 24 92 45 183 55 246 12 64 17 41 12 -45z m-59 10 c-3
-8 -6 -5 -6 6 -1 11 2 17 5 13 3 -3 4 -12 1 -19z m420 -20 c-3 -8 -6 -5 -6 6
-1 11 2 17 5 13 3 -3 4 -12 1 -19z m-199 -10 c1 -13 3 -33 3 -45 1 -13 4 -21
8 -18 4 2 8 -2 8 -9 0 -17 -26 -9 -28 8 -7 55 -5 86 4 86 2 0 4 -10 5 -22z
m225 7 c-3 -9 -8 -14 -10 -11 -3 3 -2 9 2 15 9 16 15 13 8 -4z m-354 -40 c0
-5 -4 -3 -9 5 -5 8 -9 22 -9 30 0 16 17 -16 18 -35z m-102 13 c-3 -8 -6 -5 -6
6 -1 11 2 17 5 13 3 -3 4 -12 1 -19z m-210 -30 c-3 -8 -6 -5 -6 6 -1 11 2 17
5 13 3 -3 4 -12 1 -19z m320 -20 c-3 -8 -6 -5 -6 6 -1 11 2 17 5 13 3 -3 4
-12 1 -19z m380 0 c2 -17 0 -19 -7 -8 -5 8 -6 18 -4 22 8 12 10 10 11 -14z
m-730 -30 c-3 -8 -6 -5 -6 6 -1 11 2 17 5 13 3 -3 4 -12 1 -19z m234 -25 c-12
-20 -14 -14 -5 12 4 9 9 14 11 11 3 -2 0 -13 -6 -23z m209 17 c-8 -5 -19 -10
-25 -10 -5 0 -3 5 5 10 8 5 20 10 25 10 6 0 3 -5 -5 -10z m-87 -42 c-2 -5 4
-8 14 -8 15 0 16 -2 3 -10 -10 -6 -16 -6 -18 0 -2 6 -10 10 -18 10 -9 0 -13
-4 -10 -8 3 -5 -1 -9 -8 -9 -8 0 -12 7 -11 16 2 9 4 16 4 16 1 0 12 0 25 0 13
0 22 -3 19 -7z m418 -71 c-10 -9 -11 -8 -5 6 3 10 9 15 12 12 3 -3 0 -11 -7
-18z m-624 -91 c0 -8 -6 -12 -15 -9 -11 5 -11 7 0 14 7 5 13 9 14 9 0 0 1 -6
1 -14z m-190 -18 c-3 -8 -6 -5 -6 6 -1 11 2 17 5 13 3 -3 4 -12 1 -19z m132
-17 c7 -5 9 -11 5 -14 -5 -3 -15 1 -22 9 -14 16 -5 18 17 5z m-25 -43 c-3 -4
-11 -8 -17 -7 -9 0 -9 2 0 5 7 3 9 13 6 22 -4 14 -3 14 5 2 6 -8 8 -18 6 -22z
m-52 -1 c14 -11 13 -15 -15 -30 -22 -13 -27 -14 -18 -3 8 10 9 16 1 21 -10 6
-5 25 8 25 4 0 14 -6 24 -13z m-71 -43 c-5 -16 -10 -21 -10 -12 -1 18 10 51
15 45 2 -1 -1 -16 -5 -33z m16 -26 c-3 -7 -5 -2 -5 12 0 14 2 19 5 13 2 -7 2
-19 0 -25z"/>
<path d="M907 3801 c-4 -18 -7 -43 -6 -55 1 -11 5 -1 10 24 5 25 7 49 6 55 -2
5 -7 -5 -10 -24z"/>
<path d="M255 100 c3 -5 11 -10 16 -10 6 0 7 5 4 10 -3 6 -11 10 -16 10 -6 0
-7 -4 -4 -10z"/>
<path d="M991 4583 c25 -32 39 -62 39 -87 0 -36 18 -41 48 -14 15 13 44 37 66
54 92 69 96 64 -43 64 -117 0 -123 -1 -110 -17z"/>
<path d="M3414 4587 c11 -7 33 -23 50 -37 17 -14 42 -33 56 -42 14 -8 69 -57
124 -109 137 -130 208 -240 420 -654 73 -141 103 -186 61 -90 -57 131 -76 172
-96 208 -11 21 -17 43 -13 49 4 7 3 8 -4 4 -7 -4 -12 -3 -12 3 0 11 -112 203
-144 246 -46 61 -38 58 35 -15 174 -176 262 -331 340 -600 43 -151 43 -149 24
-120 -18 27 -18 26 15 -75 22 -69 47 -125 61 -135 3 -3 30 -73 58 -157 81
-242 171 -641 193 -853 10 -92 14 -112 16 -75 6 103 -67 544 -119 720 -23 78
-84 254 -103 300 -8 17 -27 62 -44 100 -17 39 -38 106 -47 150 -43 223 -114
402 -213 545 -91 131 -138 185 -311 359 -178 180 -312 291 -347 290 -19 0 -19
0 0 -12z"/>
<path d="M3530 4596 c0 -2 21 -18 48 -35 26 -17 87 -71 136 -121 48 -49 94
-90 102 -90 14 0 140 -150 240 -285 99 -133 144 -210 185 -313 36 -92 109
-352 109 -388 0 -9 18 -57 41 -108 86 -194 151 -393 189 -581 18 -90 18 -85
19 918 l1 1007 -535 0 c-294 0 -535 -2 -535 -4z"/>
<path d="M2040 4371 c0 -7 -4 -10 -9 -7 -10 7 -34 -18 -25 -26 2 -3 -9 -27
-25 -54 -16 -27 -46 -77 -66 -111 -20 -35 -38 -63 -41 -63 -3 0 -1 8 4 18 5 9
21 42 35 72 14 30 36 71 48 90 45 70 -1 13 -55 -70 -31 -46 -54 -90 -52 -97 3
-7 1 -12 -5 -10 -6 1 -44 -72 -86 -163 -41 -91 -81 -178 -88 -195 -8 -16 -23
-66 -34 -110 -12 -44 -35 -114 -52 -155 -51 -125 -86 -247 -153 -545 -24 -105
-25 -107 -21 -45 4 58 3 60 -5 20 -4 -25 -12 -125 -16 -223 -5 -139 -10 -180
-22 -190 -14 -11 -15 10 -10 188 3 110 2 173 -2 140 -5 -33 -8 -126 -9 -207
l-1 -148 -42 -20 c-23 -11 -50 -20 -60 -20 -30 0 -11 -18 33 -31 74 -23 82
-39 123 -246 28 -138 48 -212 77 -277 21 -49 37 -91 35 -93 -2 -2 -25 45 -51
104 -43 100 -57 150 -98 373 -3 14 -4 -9 -3 -52 0 -42 4 -74 7 -72 13 7 22
-186 11 -229 -8 -36 -9 -29 -6 48 l3 90 -9 -75 c-7 -50 -6 -103 1 -160 17
-130 58 -328 74 -360 12 -23 60 -178 113 -363 4 -15 7 -16 13 -5 6 10 9 8 9
-7 0 -54 82 -343 181 -636 65 -197 112 -352 115 -388 4 -34 11 -61 16 -61 6 0
8 19 5 42 -6 60 -70 299 -102 383 -50 132 -51 136 -16 187 17 25 31 55 31 66
0 27 20 39 32 19 5 -9 29 -28 54 -43 37 -22 52 -25 88 -20 42 7 43 6 82 -42
35 -44 91 -112 196 -236 18 -21 41 -50 50 -65 10 -14 48 -57 85 -96 38 -38 84
-88 103 -111 19 -22 31 -33 25 -24 -5 9 2 3 18 -14 15 -17 27 -34 27 -38 0 -4
9 -8 21 -8 22 0 7 20 -134 182 -33 37 -57 71 -56 77 8 20 151 180 247 274 91
90 124 116 106 85 -4 -7 2 -5 13 5 11 9 23 14 28 10 4 -5 5 -2 1 5 -4 7 -13 9
-19 5 -7 -4 4 13 25 38 20 24 44 43 52 43 15 -2 15 2 -2 30 -10 17 -33 41 -52
53 -28 20 -30 23 -11 23 11 0 21 -4 21 -10 0 -5 6 -10 13 -10 6 0 45 -31 84
-68 l72 -68 -11 -36 c-17 -57 -3 -117 38 -160 31 -34 41 -38 84 -38 38 0 61 7
97 30 26 17 50 30 54 30 4 0 12 -14 19 -30 12 -29 56 -74 81 -82 8 -3 6 -15
-6 -43 -29 -71 -65 -181 -69 -212 -2 -17 -13 -52 -26 -77 -12 -26 -20 -50 -17
-53 17 -17 36 16 67 113 18 60 55 168 82 239 27 72 68 204 93 295 81 304 132
504 160 627 16 67 32 120 37 117 4 -3 8 -14 8 -25 0 -11 -3 -18 -7 -16 -5 3
-8 -27 -9 -66 0 -67 -35 -265 -68 -382 -7 -27 -30 -95 -51 -150 -52 -137 -85
-235 -84 -249 0 -6 13 25 28 69 15 44 33 89 40 100 l12 20 -5 -20 c-14 -56
-66 -223 -133 -420 -41 -121 -77 -228 -80 -237 -3 -12 0 -18 10 -18 10 0 21
19 32 53 9 28 27 81 40 117 25 72 128 396 168 530 30 101 83 327 92 390 4 25
13 79 21 120 8 41 21 124 29 185 8 60 23 160 34 220 11 61 22 146 26 190 9
112 12 125 35 125 26 0 25 14 -2 33 -22 14 -23 21 -22 118 1 73 8 125 23 174
29 99 43 298 46 660 2 171 4 315 5 320 1 6 1 46 -1 90 l-3 80 -5 -70 -6 -70
-20 155 c-10 85 -21 147 -23 136 -2 -10 1 -60 7 -110 23 -201 42 -572 36 -699
-7 -128 -7 -128 -29 -114 -19 13 -21 22 -18 83 2 50 0 65 -7 54 -6 -8 -11 -34
-11 -57 0 -27 -5 -43 -12 -43 -10 0 -113 57 -136 76 -2 1 -8 92 -12 201 -8
183 -37 460 -47 449 -3 -3 0 -60 6 -128 12 -133 16 -270 13 -412 -3 -136 -21
-95 -32 75 -13 191 -28 354 -42 464 l-11 89 -13 -37 c-9 -26 -10 -46 -4 -63 6
-14 9 -44 9 -67 l-2 -42 -7 40 c-5 28 -8 3 -10 -85 l-3 -125 -8 115 c-7 102
-28 295 -45 403 -3 20 -9 35 -13 33 -4 -3 -1 -40 6 -83 13 -76 32 -723 21
-723 -3 0 -23 8 -44 17 -22 9 -45 16 -53 14 -7 -1 -10 2 -6 8 3 7 0 8 -9 5
-14 -5 -16 7 -16 82 0 181 -34 503 -86 834 -44 276 -52 321 -74 402 -10 36
-16 69 -13 71 6 7 -24 64 -39 73 -9 5 -8 2 1 -9 8 -10 11 -20 8 -23 -3 -3 1
-21 9 -39 26 -63 71 -317 67 -380 -2 -33 -8 -204 -14 -380 -23 -732 -28 -803
-68 -955 -46 -176 -69 -227 -120 -257 -33 -19 -45 -22 -54 -13 -9 9 -9 11 2 8
8 -2 20 8 27 22 19 39 54 179 59 240 l5 55 -18 -65 -17 -65 -5 270 -5 270 -8
-195 c-15 -377 -23 -462 -46 -508 -23 -46 -26 -56 -11 -47 6 3 10 1 10 -6 0
-12 27 -9 65 7 18 7 19 6 5 -11 -13 -16 -13 -18 0 -13 48 16 129 223 156 400
9 57 20 193 24 303 5 110 16 313 24 450 9 138 13 288 10 335 -7 96 2 103 16
14 14 -84 58 -629 61 -749 l3 -100 -39 -12 -40 -11 37 -1 c20 -1 40 -5 43 -11
3 -5 3 -102 -1 -214 l-7 -205 -31 -7 c-62 -14 -160 -77 -133 -87 9 -3 8 -8 -2
-20 -22 -27 3 -20 44 13 37 29 92 47 117 37 7 -3 2 -6 -11 -6 -35 -1 -84 -35
-126 -87 -61 -74 -99 -266 -63 -323 26 -42 229 -117 291 -107 47 8 55 15 97
91 18 33 40 71 48 83 9 13 17 49 18 80 2 41 8 60 21 69 10 7 29 23 42 35 l24
23 -22 -44 c-12 -23 -20 -45 -17 -48 2 -3 20 27 39 66 18 39 31 73 29 76 -2 2
-24 -15 -49 -38 -72 -68 -81 -59 -34 33 24 46 29 50 29 27 0 -15 -4 -24 -9
-21 -5 3 -9 -4 -9 -15 0 -29 15 -26 39 8 20 28 20 29 1 46 -11 10 -17 22 -14
27 9 15 34 227 34 291 0 32 4 57 8 55 5 -1 37 -16 71 -33 l62 -30 -7 -75 c-6
-70 -42 -204 -65 -239 -9 -13 -9 -12 -4 4 22 67 10 66 -14 -1 -16 -45 -41
-104 -56 -130 -15 -27 -20 -40 -11 -30 19 24 20 23 35 -36 16 -68 14 -124 -8
-166 -18 -36 -84 -103 -127 -129 -17 -10 -17 -12 -2 -12 24 -1 98 29 98 40 0
10 65 39 87 39 10 0 13 -9 8 -37 l-5 -38 15 35 15 35 -5 -50 c-4 -37 -13 -57
-35 -80 -16 -17 -37 -53 -46 -80 -9 -28 -20 -54 -24 -60 -5 -5 -25 -53 -46
-105 -20 -52 -48 -112 -61 -132 -12 -21 -23 -41 -23 -46 0 -5 -16 -27 -36 -50
-34 -40 -109 -82 -269 -152 -175 -76 -495 -181 -673 -221 l-133 -30 -85 17
c-63 13 -99 27 -144 56 -33 21 -64 36 -69 34 -5 -3 -15 2 -22 12 -13 16 -13
16 6 2 18 -13 19 -13 8 0 -17 22 -78 57 -68 39 4 -8 -4 -1 -17 15 -16 19 -29
26 -38 21 -8 -5 -11 -4 -7 2 4 6 -14 25 -39 43 -25 18 -56 42 -69 54 -24 23
-68 59 -145 122 -190 154 -218 206 -256 469 -27 188 -29 230 -10 170 26 -81
66 -151 116 -205 44 -47 49 -50 32 -20 -46 79 -122 396 -122 506 0 23 2 25 15
14 14 -12 15 -10 11 11 -2 13 -9 37 -15 52 -21 54 -14 129 17 178 16 24 38 52
49 62 24 20 156 87 162 81 2 -2 -7 -15 -20 -28 -67 -67 -104 -182 -96 -301 4
-50 36 -127 59 -141 9 -6 9 -3 -1 9 -9 11 -9 17 -2 17 6 0 16 -9 23 -20 7 -11
20 -20 30 -20 9 0 20 -4 23 -10 3 -5 14 -10 23 -10 15 0 15 2 2 11 -11 7 1 8
40 3 30 -4 82 -6 115 -6 49 2 63 6 80 26 11 13 30 29 42 35 39 20 72 180 58
283 -6 43 -15 60 -46 91 -21 21 -37 41 -36 45 3 10 -113 33 -140 28 -12 -2
-20 1 -17 5 8 14 95 10 144 -7 47 -16 110 -69 141 -119 11 -17 19 -23 19 -14
0 8 -5 20 -12 27 -16 16 4 16 21 0 9 -9 8 -2 -3 18 -8 18 -37 51 -63 74 -38
34 -43 41 -23 35 14 -4 36 -14 50 -22 21 -12 20 -10 -5 12 -47 42 -105 65
-164 65 -63 0 -63 -10 2 135 24 55 57 131 72 169 39 95 88 142 110 106 7 -12
25 -4 25 11 0 5 -16 9 -35 9 -19 0 -35 4 -35 8 0 5 22 60 49 123 27 63 52 128
55 145 4 18 16 54 27 80 18 45 19 46 15 14 -28 -186 -39 -298 -43 -425 -16
-533 -16 -512 3 -581 10 -35 22 -64 26 -64 4 0 5 7 1 16 -3 9 -1 19 5 23 13 8
32 161 32 258 0 36 5 63 11 65 8 3 9 18 4 47 -4 23 -8 41 -10 39 -5 -5 -45
-291 -46 -329 l-1 -34 -9 35 c-12 49 7 312 36 495 39 247 66 437 63 447 -2 6
-14 -48 -28 -119 -13 -70 -26 -119 -28 -109 -2 10 1 44 7 75 21 109 41 286 36
316 -4 20 -3 25 3 17 11 -17 25 69 15 94 -5 13 -3 15 7 9 10 -6 12 -3 8 13 -4
12 -3 20 2 17 4 -3 13 26 20 63 18 97 78 309 101 353 21 42 24 53 10 45 -13
-8 -66 -159 -91 -258 -12 -45 -28 -94 -35 -109 -8 -15 -26 -71 -41 -125 -30
-113 -92 -287 -139 -389 -17 -38 -47 -107 -65 -153 -18 -45 -36 -84 -39 -87
-4 -2 -56 -10 -116 -17 -87 -10 -100 -14 -60 -15 28 -2 74 -5 103 -9 61 -6 61
-7 12 -106 -16 -31 -34 -76 -40 -100 -7 -23 -22 -59 -33 -78 -12 -19 -32 -53
-43 -75 -12 -21 -27 -41 -33 -43 -14 -5 -27 28 -14 37 17 11 83 225 73 235
-10 10 -11 10 -15 -34 -4 -32 -62 -171 -80 -189 -27 -28 -35 -1 -10 37 44 68
86 144 82 149 -3 2 -26 -29 -53 -69 -60 -92 -103 -138 -127 -138 -18 0 -18 1
-3 25 24 37 20 40 -18 12 -18 -15 -37 -23 -41 -19 -5 4 -5 2 -1 -5 4 -8 -12
-23 -46 -43 -29 -16 -56 -30 -60 -30 -4 0 18 43 49 95 30 53 53 99 49 102 -3
4 -6 2 -6 -4 0 -6 -14 -28 -31 -49 -17 -22 -43 -63 -56 -92 -14 -29 -30 -55
-35 -58 -19 -12 3 40 49 116 54 88 125 222 120 226 -2 2 -24 -36 -51 -85 -26
-48 -54 -88 -62 -88 -8 0 -14 5 -14 10 0 18 22 80 41 118 11 20 19 42 19 49 0
25 44 100 59 101 9 0 11 3 4 5 -8 4 -7 19 7 57 25 72 136 361 210 547 34 85
64 164 67 175 13 45 -7 3 -56 -120 -29 -71 -66 -160 -82 -196 -16 -36 -29 -69
-29 -73 0 -4 -9 -26 -19 -49 -10 -23 -32 -72 -49 -108 -16 -37 -35 -69 -41
-73 -6 -4 -11 -16 -11 -27 0 -11 -7 -34 -16 -51 -9 -17 -18 -46 -20 -64 -5
-40 -52 -147 -53 -120 -1 10 10 69 23 130 14 61 27 127 31 146 16 93 50 220
72 265 13 28 20 39 17 25 -3 -14 -21 -81 -39 -150 -17 -69 -35 -145 -38 -170
-5 -39 -2 -35 19 30 14 41 26 89 27 106 1 18 6 30 11 26 5 -3 6 7 2 22 -5 20
-3 26 5 21 8 -5 9 -1 4 15 -5 16 -4 20 4 15 8 -5 10 2 6 22 -5 19 -4 24 3 14
7 -9 9 3 8 38 0 28 2 51 5 51 6 0 29 68 35 100 1 8 6 26 10 40 13 43 239 484
273 534 18 26 30 50 27 53 -3 4 -6 1 -6 -6z m217 -733 c-3 -7 -5 -2 -5 12 0
14 2 19 5 13 2 -7 2 -19 0 -25z m-10 -40 c-3 -8 -6 -5 -6 6 -1 11 2 17 5 13 3
-3 4 -12 1 -19z m-696 -344 c-6 -22 -24 -131 -41 -244 -27 -181 -61 -325 -79
-340 -9 -7 -8 -26 1 -36 4 -4 10 0 14 9 3 9 29 23 58 31 29 9 64 25 79 36 31
25 46 26 24 2 -8 -9 -37 -26 -64 -36 -30 -12 -61 -35 -83 -61 -19 -23 -38 -40
-43 -38 -9 6 -7 105 3 118 5 6 18 62 30 125 51 270 99 484 107 476 2 -2 0 -21
-6 -42z m666 -16 c-3 -8 -6 -5 -6 6 -1 11 2 17 5 13 3 -3 4 -12 1 -19z m1309
-285 c4 -84 4 -153 0 -153 -4 0 -21 7 -38 16 -28 15 -30 18 -24 57 7 45 24
261 27 337 2 89 28 -97 35 -257z m-69 70 c-3 -10 -5 -2 -5 17 0 19 2 27 5 18
2 -10 2 -26 0 -35z m-109 -161 c33 -15 38 -20 25 -28 -14 -9 -11 -12 15 -23
30 -12 32 -17 32 -62 0 -26 -5 -93 -11 -149 -11 -91 -14 -100 -33 -101 -17 -1
-18 -2 -3 -6 18 -5 23 -38 7 -48 -5 -3 -10 -2 -10 4 0 5 -15 8 -32 7 -18 -1
-32 -6 -30 -9 1 -4 2 -12 2 -17 0 -7 6 -7 18 -1 31 16 45 -2 38 -50 -7 -50
-26 -77 -26 -38 0 14 3 29 8 33 22 22 -11 53 -36 33 -17 -13 -20 -9 -23 38 -2
44 12 435 16 435 2 0 21 -8 43 -18z m147 -92 c7 0 21 -7 29 -16 13 -13 16 -42
16 -156 l0 -140 -28 4 c-16 2 -34 -2 -41 -9 -6 -7 -21 -13 -32 -13 -18 0 -19
5 -14 48 7 65 25 273 25 295 0 17 1 17 16 3 8 -9 22 -16 29 -16z m-1761 -25
c4 -10 -1 -15 -16 -15 -17 0 -18 2 -8 15 7 8 14 15 15 15 2 0 5 -7 9 -15z
m-54 2 c0 -2 -16 -19 -36 -38 -26 -24 -33 -28 -25 -12 14 27 39 53 52 53 5 0
9 -1 9 -3z m120 -47 c-14 -26 -31 -36 -23 -13 4 13 -3 10 -25 -11 -17 -15 -36
-26 -44 -23 -10 4 -9 6 2 6 9 1 27 19 40 40 20 32 28 37 43 30 13 -8 15 -14 7
-29z m1792 4 c9 -31 2 -178 -12 -235 -6 -27 -8 -19 -9 42 -1 42 -4 111 -8 154
-5 63 -4 77 7 73 8 -2 18 -18 22 -34z m-1798 -96 c15 -25 -1 -47 -55 -74 -40
-21 -45 -21 -62 -7 -16 15 -16 18 -1 42 37 60 93 78 118 39z m2029 -62 c-5
-76 -28 -197 -48 -256 l-15 -45 5 55 c3 30 6 107 6 170 1 149 4 162 34 148 21
-9 23 -15 18 -72z m-2030 -53 c-20 -15 -43 -17 -43 -4 0 6 10 17 22 25 28 20
48 -1 21 -21z m1737 -73 c0 -22 -1 -23 -24 -14 -13 5 -14 9 -5 20 16 20 29 17
29 -6z m216 -76 c-18 -87 -32 -110 -41 -72 -4 16 3 44 19 81 14 30 26 61 26
68 0 7 3 10 6 6 3 -3 -1 -41 -10 -83z m-414 49 c-6 -2 -10 -9 -7 -14 6 -8 -43
-65 -49 -58 -2 2 -1 18 1 36 3 20 10 30 18 27 7 -3 16 -1 20 5 3 6 12 11 18
10 9 0 8 -2 -1 -6z m-1905 -35 c-3 -8 -6 -5 -6 6 -1 11 2 17 5 13 3 -3 4 -12
1 -19z m1829 -35 c-7 -38 -37 -73 -62 -73 -8 0 -14 6 -14 13 0 8 -4 7 -10 -3
-6 -9 -10 -10 -10 -3 0 6 5 15 10 18 6 3 10 15 10 26 0 17 51 59 74 59 4 0 5
-17 2 -37z m551 -5 c-3 -7 -5 -2 -5 12 0 14 2 19 5 13 2 -7 2 -19 0 -25z
m-2370 -10 c-3 -8 -6 -5 -6 6 -1 11 2 17 5 13 3 -3 4 -12 1 -19z m2083 -14 c0
-32 -6 -30 -18 5 -9 25 -8 29 4 24 8 -3 14 -16 14 -29z m-2113 -41 c-3 -10 -5
-2 -5 17 0 19 2 27 5 18 2 -10 2 -26 0 -35z m396 31 c67 -3 97 -12 97 -28 0
-8 4 -16 9 -18 6 -1 12 -17 15 -34 4 -23 2 -34 -9 -38 -13 -5 -88 -2 -203 7
-18 2 -42 13 -54 24 -18 19 -20 25 -9 51 13 31 55 53 86 45 11 -3 42 -7 68 -9z
m-153 -18 c0 -3 -4 -8 -10 -11 -5 -3 -10 -1 -10 4 0 6 5 11 10 11 6 0 10 -2
10 -4z m2053 -23 c7 -16 11 -39 9 -52 -3 -22 -6 -19 -23 18 -16 37 -18 61 -4
61 3 0 10 -12 18 -27z m-413 2 c0 -8 -4 -15 -9 -15 -5 0 -16 -3 -25 -6 -12 -4
-16 0 -16 15 0 16 6 21 25 21 16 0 25 -6 25 -15z m460 -52 c-11 -17 -11 -17
-6 0 3 10 6 24 7 30 0 9 2 9 5 0 3 -7 0 -20 -6 -30z m-2333 -10 c-3 -10 -5 -4
-5 12 0 17 2 24 5 18 2 -7 2 -21 0 -30z m10 -55 c-3 -7 -5 -2 -5 12 0 14 2 19
5 13 2 -7 2 -19 0 -25z m2309 0 c-2 -18 -7 -49 -12 -68 l-8 -35 -6 35 c-5 29
14 100 26 100 2 0 1 -15 0 -32z m-444 -93 c10 -4 20 -17 24 -28 7 -22 7 -22
14 -2 7 18 9 18 19 -8 6 -16 11 -38 11 -51 0 -12 6 -28 13 -35 6 -7 8 -11 2
-10 -5 1 -17 -1 -26 -5 -8 -4 -52 5 -96 19 -45 14 -89 22 -99 19 -14 -4 -15
-3 -6 4 11 7 8 11 -12 16 -35 9 -45 49 -20 78 17 18 27 20 89 15 39 -3 78 -8
87 -12z m128 -55 c0 -5 -2 -10 -4 -10 -3 0 -8 5 -11 10 -3 6 -1 10 4 10 6 0
11 -4 11 -10z m-19 -57 c-12 -20 -14 -14 -5 12 4 9 9 14 11 11 3 -2 0 -13 -6
-23z m-2004 -80 c-2 -16 -4 -3 -4 27 0 30 2 43 4 28 2 -16 2 -40 0 -55z m2213
74 c0 -2 -10 -12 -22 -23 l-23 -19 19 23 c18 21 26 27 26 19z m95 -285 c-5
-43 -12 -56 -39 -77 -18 -14 -35 -25 -38 -25 -6 0 7 89 17 115 4 11 20 39 34
63 l26 42 3 -32 c2 -18 1 -57 -3 -86z m-20 -164 c-4 -24 -11 -47 -16 -52 -12
-13 -11 -4 2 50 14 56 23 57 14 2z m-2197 -39 c-3 -8 -7 -3 -11 10 -4 17 -3
21 5 13 5 -5 8 -16 6 -23z m2129 -1 c-3 -8 -6 -5 -6 6 -1 11 2 17 5 13 3 -3 4
-12 1 -19z m-114 -103 c-3 -9 -8 -14 -10 -11 -3 3 -2 9 2 15 9 16 15 13 8 -4z
m-1859 -41 c5 -14 4 -15 -9 -4 -17 14 -19 20 -6 20 5 0 12 -7 15 -16z m1872
-12 c1 -7 2 -17 3 -23 0 -5 6 -7 11 -4 6 3 10 4 10 1 0 -18 -20 -11 -38 13
-18 25 -19 29 -4 27 9 -2 18 -8 18 -14z m-51 -30 c-3 -3 -11 0 -18 7 -9 10 -8
11 6 5 10 -3 15 -9 12 -12z m-1740 -15 c10 -8 14 -16 9 -19 -5 -3 -18 3 -28
13 -22 22 -9 26 19 6z m71 -53 c1 -9 0 -13 -4 -10 -3 4 -7 14 -8 22 -1 9 0 13
4 10 3 -4 7 -14 8 -22z m-46 6 c-8 -5 -22 -9 -30 -9 -10 0 -8 3 5 9 27 12 43
12 25 0z m1600 6 c0 -2 -7 -7 -16 -10 -8 -3 -12 -2 -9 4 6 10 25 14 25 6z m47
-68 c-3 -8 -6 -5 -6 6 -1 11 2 17 5 13 3 -3 4 -12 1 -19z m-1392 -104 c123
-88 282 -176 272 -151 -5 13 -1 14 24 5 39 -13 197 5 319 37 50 14 92 25 93
25 1 0 1 -68 1 -151 -2 -173 9 -151 -124 -250 -179 -133 -238 -159 -270 -121
-8 10 -58 55 -110 100 -52 44 -117 104 -144 131 -27 28 -53 51 -56 51 -11 0
-136 153 -152 186 -9 18 -12 40 -7 59 3 17 7 56 8 87 1 68 9 92 25 79 6 -4 61
-44 121 -87z m1372 74 c-3 -8 -6 -5 -6 6 -1 11 2 17 5 13 3 -3 4 -12 1 -19z
m-227 -8 c0 -5 -2 -10 -4 -10 -3 0 -8 5 -11 10 -3 6 -1 10 4 10 6 0 11 -4 11
-10z m-60 -10 c0 -5 -5 -10 -11 -10 -5 0 -7 5 -4 10 3 6 8 10 11 10 2 0 4 -4
4 -10z m-1437 -24 c4 -10 1 -13 -9 -9 -7 3 -14 9 -14 14 0 14 17 10 23 -5z
m1437 0 c0 -2 -7 -7 -16 -10 -8 -3 -12 -2 -9 4 6 10 25 14 25 6z m-43 -25 c0
-11 -5 -18 -9 -15 -4 3 -5 11 -1 19 7 21 12 19 10 -4z m33 -6 c-7 -9 -15 -13
-19 -10 -3 3 1 10 9 15 21 14 24 12 10 -5z m-65 -5 c3 -6 -1 -7 -9 -4 -18 7
-21 14 -7 14 6 0 13 -4 16 -10z m515 -20 c0 -5 -5 -10 -11 -10 -5 0 -7 5 -4
10 3 6 8 10 11 10 2 0 4 -4 4 -10z m-143 -62 c-3 -7 -5 -2 -5 12 0 14 2 19 5
13 2 -7 2 -19 0 -25z m-320 0 c-3 -8 -6 -5 -6 6 -1 11 2 17 5 13 3 -3 4 -12 1
-19z m-317 5 c0 -5 -5 -15 -10 -23 -8 -12 -10 -11 -10 8 0 12 5 22 10 22 6 0
10 -3 10 -7z m68 -34 c-3 -8 -7 -3 -11 10 -4 17 -3 21 5 13 5 -5 8 -16 6 -23z
m-1110 -32 c3 -23 0 -27 -22 -27 -21 0 -26 5 -26 23 0 13 3 27 7 31 15 14 38
0 41 -27z m122 19 c0 -8 5 -16 12 -18 6 -2 8 -9 4 -16 -11 -18 -36 -2 -36 24
0 13 5 24 10 24 6 0 10 -6 10 -14z m897 -63 c-2 -16 -4 -5 -4 22 0 28 2 40 4
28 2 -13 2 -35 0 -50z m140 35 c-3 -7 -5 -2 -5 12 0 14 2 19 5 13 2 -7 2 -19
0 -25z m575 -3 c3 -13 1 -22 -3 -19 -9 5 -13 44 -5 44 2 0 6 -11 8 -25z m-632
11 c0 -11 -19 -15 -25 -6 -3 5 1 10 9 10 9 0 16 -2 16 -4z m567 -18 c-3 -8 -6
-5 -6 6 -1 11 2 17 5 13 3 -3 4 -12 1 -19z m-462 -59 c10 -30 2 -32 -12 -3 -6
13 -7 24 -3 24 5 0 12 -9 15 -21z m-125 -4 c7 -8 8 -15 3 -15 -5 0 -8 -14 -5
-30 3 -25 1 -29 -12 -24 -11 4 -16 18 -16 45 0 41 9 49 30 24z m667 -7 c-3 -8
-6 -5 -6 6 -1 11 2 17 5 13 3 -3 4 -12 1 -19z m-493 -28 c10 -13 9 -13 -6 -1
-10 7 -18 21 -17 30 0 13 1 14 6 1 3 -8 11 -22 17 -30z m-124 -13 c0 -5 -4 -5
-10 -2 -5 3 -10 14 -10 23 0 15 2 15 10 2 5 -8 10 -19 10 -23z m175 13 c11 -5
14 -9 7 -9 -7 -1 -10 -5 -7 -11 3 -6 -1 -7 -9 -4 -9 3 -14 10 -11 14 3 5 -1
11 -7 13 -7 3 -8 5 -3 6 6 0 19 -4 30 -9z m422 -22 c-3 -7 -5 -2 -5 12 0 14 2
19 5 13 2 -7 2 -19 0 -25z m-366 -18 c7 0 10 -3 7 -6 -11 -10 -46 19 -40 34 4
12 7 10 13 -6 5 -12 14 -22 20 -22z m56 -12 c-3 -7 -5 -2 -5 12 0 14 2 19 5
13 2 -7 2 -19 0 -25z m88 -77 c-6 -5 -25 10 -25 20 0 5 6 4 14 -3 8 -7 12 -15
11 -17z m169 -17 c3 -8 2 -12 -4 -9 -6 3 -10 10 -10 16 0 14 7 11 14 -7z m-29
-24 c-3 -5 -12 -10 -18 -10 -7 0 -6 4 3 10 19 12 23 12 15 0z m41 -30 c-1 -30
-11 -39 -24 -24 -4 4 -1 3 7 -1 11 -6 13 -4 8 8 -6 15 0 47 8 47 1 0 2 -14 1
-30z m-895 -447 c13 -16 12 -17 -3 -4 -10 7 -18 15 -18 17 0 8 8 3 21 -13z"/>
<path d="M2743 4280 c0 -25 2 -35 4 -22 2 12 2 32 0 45 -2 12 -4 2 -4 -23z"/>
<path d="M2712 4210 c0 -14 2 -19 5 -12 2 6 2 18 0 25 -3 6 -5 1 -5 -13z"/>
<path d="M2730 4203 c0 -16 -8 -66 -17 -113 -15 -72 -18 -80 -24 -55 -6 26 -7
27 -7 5 0 -14 3 -36 7 -49 5 -20 10 -9 24 51 21 86 33 188 23 188 -3 0 -6 -12
-6 -27z"/>
<path d="M2702 4155 c0 -16 2 -22 5 -12 2 9 2 23 0 30 -3 6 -5 -1 -5 -18z"/>
<path d="M2692 4095 c0 -16 2 -22 5 -12 2 9 2 23 0 30 -3 6 -5 -1 -5 -18z"/>
<path d="M2987 3835 c-11 -270 -33 -552 -52 -652 -8 -46 -21 -118 -29 -160 -8
-43 -31 -134 -51 -203 -19 -69 -33 -111 -30 -95 8 49 55 456 55 478 0 53 -9
-2 -24 -148 -10 -88 -21 -169 -26 -180 -5 -11 -14 -58 -20 -105 -6 -47 -20
-127 -30 -177 -23 -108 -28 -210 -12 -238 10 -17 12 -11 12 35 2 72 13 135 43
245 75 273 131 547 146 715 6 63 18 180 27 260 12 112 14 177 7 285 l-8 140
-8 -200z"/>
<path d="M1936 3993 c-6 -14 -5 -15 5 -6 7 7 10 15 7 18 -3 3 -9 -2 -12 -12z"/>
<path d="M2670 3959 c0 -11 4 -18 10 -14 5 3 7 12 3 20 -7 21 -13 19 -13 -6z"/>
<path d="M2661 3904 c0 -11 3 -14 6 -6 3 7 2 16 -1 19 -3 4 -6 -2 -5 -13z"/>
<path d="M3760 3740 c0 -3 16 -50 35 -105 19 -55 35 -93 35 -84 0 29 -68 214
-70 189z"/>
<path d="M3782 3610 c0 -14 2 -19 5 -12 2 6 2 18 0 25 -3 6 -5 1 -5 -13z"/>
<path d="M1725 3559 c-4 -6 -5 -12 -2 -15 2 -3 7 2 10 11 7 17 1 20 -8 4z"/>
<path d="M3831 3514 c0 -11 3 -14 6 -6 3 7 2 16 -1 19 -3 4 -6 -2 -5 -13z"/>
<path d="M3832 3435 c0 -16 2 -22 5 -12 2 9 2 23 0 30 -3 6 -5 -1 -5 -18z"/>
<path d="M2643 3292 c-12 -59 -29 -134 -38 -167 -9 -33 -18 -98 -21 -145 -2
-47 -10 -139 -18 -205 l-14 -120 -2 100 -3 100 -9 -100 c-11 -121 -5 -392 8
-405 10 -10 54 -2 54 10 0 5 16 27 35 50 19 22 44 68 56 101 12 32 22 59 23
59 1 0 2 -37 2 -82 -1 -49 5 -96 13 -115 20 -49 31 -40 15 13 -9 30 -13 83
-11 152 l3 107 -45 -85 c-24 -47 -52 -99 -61 -117 -10 -18 -21 -29 -24 -25 -4
3 -4 -1 -1 -10 4 -11 -1 -20 -14 -27 -28 -15 -31 -14 -30 12 0 21 1 21 10 2 6
-14 7 -7 2 20 -14 71 -6 216 21 380 52 324 66 422 70 513 3 50 4 92 3 92 -1 0
-12 -48 -24 -108z m-6 -124 c-3 -8 -6 -5 -6 6 -1 11 2 17 5 13 3 -3 4 -12 1
-19z m-12 -93 c-4 -31 -10 -54 -12 -51 -3 3 -2 30 2 61 3 31 9 54 12 52 2 -3
1 -31 -2 -62z m-18 -117 c-2 -13 -4 -5 -4 17 -1 22 1 32 4 23 2 -10 2 -28 0
-40z"/>
<path d="M2891 3334 c0 -11 3 -14 6 -6 3 7 2 16 -1 19 -3 4 -6 -2 -5 -13z"/>
<path d="M2882 3270 c0 -19 2 -27 5 -17 2 9 2 25 0 35 -3 9 -5 1 -5 -18z"/>
<path d="M1710 3200 c-14 -28 -27 -40 -43 -41 -18 -1 -19 -2 -4 -6 14 -4 17
-11 13 -31 -5 -26 -5 -26 6 -4 7 14 21 22 37 23 17 1 20 3 9 6 -22 6 -23 25
-3 63 9 17 13 30 10 30 -2 0 -14 -18 -25 -40z"/>
<path d="M1743 3163 c15 -2 39 -2 55 0 15 2 2 4 -28 4 -30 0 -43 -2 -27 -4z"/>
<path d="M1650 3075 c-7 -9 -11 -17 -9 -20 3 -2 10 5 17 15 14 24 10 26 -8 5z"/>
<path d="M4347 2991 c-9 -44 -9 -106 0 -115 4 -4 6 -26 4 -50 -3 -48 29 -326
59 -516 33 -205 42 -331 30 -440 -10 -100 -27 -160 -40 -139 -4 6 -10 -6 -14
-28 -4 -21 -10 -47 -13 -58 -5 -18 -3 -18 9 -5 28 28 66 145 79 241 13 105 1
288 -26 394 -8 30 -20 127 -26 217 -7 90 -15 165 -18 168 -3 3 -7 28 -8 55 -5
155 -13 263 -21 284 -9 24 -9 24 -15 -8z m20 -193 c-3 -8 -6 -5 -6 6 -1 11 2
17 5 13 3 -3 4 -12 1 -19z m10 -70 c-3 -7 -5 -2 -5 12 0 14 2 19 5 13 2 -7 2
-19 0 -25z"/>
<path d="M2242 2955 c0 -16 2 -22 5 -12 2 9 2 23 0 30 -3 6 -5 -1 -5 -18z"/>
<path d="M1373 2935 c0 -22 2 -30 4 -17 2 12 2 30 0 40 -3 9 -5 -1 -4 -23z"/>
<path d="M4381 2904 c0 -11 3 -14 6 -6 3 7 2 16 -1 19 -3 4 -6 -2 -5 -13z"/>
<path d="M4396 2845 c4 -22 17 -74 30 -115 49 -159 84 -284 84 -298 0 -9 3
-13 6 -9 13 12 -62 304 -106 412 l-20 50 6 -40z"/>
<path d="M2251 2780 c-1 -32 26 -184 40 -230 13 -41 43 -93 77 -135 l25 -30
-8 44 -7 44 36 -37 c19 -20 45 -39 56 -41 16 -3 10 9 -29 53 -27 31 -56 72
-65 90 -23 45 -30 40 -22 -18 4 -27 4 -50 2 -50 -5 0 -60 172 -89 280 -9 33
-16 45 -16 30z"/>
<path d="M2073 2732 c23 -25 22 -39 -1 -21 -10 8 -6 2 9 -13 15 -14 35 -39 44
-55 15 -26 15 -26 9 -3 -10 36 -54 110 -67 110 -5 0 -3 -8 6 -18z"/>
<path d="M3012 2650 c0 -14 2 -19 5 -12 2 6 2 18 0 25 -3 6 -5 1 -5 -13z"/>
<path d="M3210 2490 c-9 -6 -10 -10 -3 -10 6 0 15 5 18 10 8 12 4 12 -15 0z"/>
<path d="M126 2369 c7 -50 15 -93 17 -95 2 -3 9 21 16 53 6 32 14 68 17 80 5
17 -1 25 -25 37 -16 9 -32 16 -34 16 -2 0 2 -41 9 -91z"/>
<path d="M4294 2265 c5 -155 22 -446 36 -605 5 -63 13 -279 16 -480 7 -359 6
-368 -20 -555 -43 -308 -37 -284 -133 -535 -14 -36 -27 -71 -30 -77 -4 -10 13
-13 66 -13 l71 0 1 143 c1 78 0 158 -1 177 0 19 6 68 15 108 21 100 44 314 52
491 5 110 9 136 15 106 4 -22 21 -119 38 -215 17 -96 36 -202 41 -235 6 -33
12 -105 14 -160 4 -120 23 -373 31 -397 3 -10 10 -18 15 -18 6 0 8 33 5 88 -4
56 -2 78 3 62 5 -14 9 -53 10 -87 1 -56 3 -63 21 -63 26 0 26 1 -9 205 -36
214 -55 344 -53 372 1 12 -2 24 -7 27 -4 3 -7 22 -4 42 2 19 0 33 -4 31 -4 -3
-8 14 -9 36 0 44 -9 146 -19 234 -4 30 -2 54 4 57 5 4 10 -2 10 -11 0 -10 9
-70 21 -133 11 -63 27 -153 35 -200 21 -121 52 -296 63 -355 l10 -50 1 65 c0
36 -13 142 -30 235 -16 94 -39 224 -49 290 -11 66 -26 156 -34 200 -32 176
-35 224 -14 239 23 17 95 156 113 218 10 35 15 83 13 130 l-3 73 -9 -72 c-5
-40 -13 -73 -18 -73 -5 0 -6 21 -3 48 17 149 20 206 15 287 -4 50 -8 88 -10
85 -1 -3 -6 -84 -10 -180 -8 -200 -33 -335 -83 -442 -31 -68 -46 -78 -48 -30
0 23 -2 24 -8 7 -7 -16 -9 -14 -14 14 -4 18 -4 44 0 58 3 16 2 24 -4 20 -14
-9 -44 169 -51 297 -3 82 0 132 14 205 l19 96 6 -60 c4 -33 8 -96 9 -140 l2
-80 14 70 c12 63 12 84 -5 210 -10 77 -26 156 -35 175 -8 19 -15 28 -15 20 1
-8 0 -49 -1 -90 l-3 -75 -8 75 c-5 41 -12 82 -15 90 -4 8 -8 26 -10 41 -2 14
-10 50 -19 80 l-15 54 4 -130z m267 -806 c-6 -20 -17 -42 -25 -48 -10 -8 -8 8
8 58 13 45 22 63 24 49 2 -12 -1 -39 -7 -59z m-194 -41 c-3 -8 -6 -5 -6 6 -1
11 2 17 5 13 3 -3 4 -12 1 -19z m40 -170 c-3 -7 -5 -2 -5 12 0 14 2 19 5 13 2
-7 2 -19 0 -25z m22 -81 c1 -14 -4 -17 -21 -12 -18 6 -20 4 -13 -11 4 -11 9
-28 10 -39 0 -11 7 -40 15 -65 7 -25 14 -56 16 -70 1 -14 6 -47 10 -74 7 -52
-8 -60 -19 -9 -3 16 -15 71 -27 123 -11 52 -23 118 -26 145 -4 46 -3 49 11 31
8 -11 15 -16 15 -10 0 5 5 2 10 -6 8 -13 10 -13 10 2 0 9 -5 20 -10 23 -6 4
-7 11 -3 18 7 12 21 -16 22 -46z m11 -53 c0 -8 -5 -12 -10 -9 -6 4 -8 11 -5
16 9 14 15 11 15 -7z m6 -72 c-11 -10 -15 4 -8 28 l7 25 3 -23 c2 -13 1 -26
-2 -30z m21 -334 c-3 -8 -6 -5 -6 6 -1 11 2 17 5 13 3 -3 4 -12 1 -19z m40
-420 c-3 -8 -6 -5 -6 6 -1 11 2 17 5 13 3 -3 4 -12 1 -19z m-218 -45 c0 -36
-2 -43 -9 -27 -7 18 -3 74 6 74 2 0 4 -21 3 -47z m228 -35 c-3 -7 -5 -2 -5 12
0 14 2 19 5 13 2 -7 2 -19 0 -25z"/>
<path d="M4522 2365 c0 -16 2 -22 5 -12 2 9 2 23 0 30 -3 6 -5 -1 -5 -18z"/>
<path d="M4536 2260 c3 -41 10 -99 15 -129 5 -30 9 -75 9 -100 0 -24 3 -42 6
-38 12 12 4 146 -15 242 l-20 100 5 -75z"/>
<path d="M0 2044 c0 -65 4 -125 8 -131 6 -9 22 1 54 35 42 43 47 54 58 120 7
40 10 76 7 78 -3 3 -14 1 -25 -5 -30 -16 -63 -13 -84 6 -17 15 -18 12 -18
-103z"/>
<path d="M1335 2100 c3 -14 10 -52 15 -85 l9 -60 -5 75 c-3 41 -10 80 -15 85
-7 7 -8 2 -4 -15z"/>
<path d="M4 1817 c-3 -8 -3 -57 -2 -111 l3 -97 37 50 c29 38 38 60 38 90 0 34
-4 42 -35 60 -28 16 -37 18 -41 8z"/>
<path d="M142 1785 c0 -16 2 -22 5 -12 2 9 2 23 0 30 -3 6 -5 -1 -5 -18z"/>
<path d="M4477 1710 c-16 -41 -34 -84 -41 -95 -10 -16 -10 -32 4 -85 l16 -65
12 45 c31 123 43 189 40 230 l-3 45 -28 -75z"/>
<path d="M251 1564 c0 -11 3 -14 6 -6 3 7 2 16 -1 19 -3 4 -6 -2 -5 -13z"/>
<path d="M2300 1411 c0 -13 38 -28 110 -46 41 -9 90 -26 108 -36 22 -13 32
-15 30 -7 -4 13 -248 100 -248 89z"/>
<path d="M0 1153 c0 -135 3 -243 7 -239 4 3 13 98 19 209 18 282 18 277 -6
277 -19 0 -20 -7 -20 -247z"/>
<path d="M4411 1374 c0 -11 3 -14 6 -6 3 7 2 16 -1 19 -3 4 -6 -2 -5 -13z"/>
<path d="M4556 1302 c-43 -92 -43 -109 -6 -307 11 -55 25 -138 32 -185 l13
-85 3 168 c1 93 1 241 0 329 l-3 161 -39 -81z"/>
<path d="M4291 1135 c-1 -27 -10 -104 -22 -170 -11 -66 -33 -208 -49 -315 -36
-240 -63 -375 -88 -432 -11 -24 -25 -56 -32 -73 -7 -16 -24 -55 -37 -85 l-24
-55 33 39 c18 21 50 70 71 109 21 38 47 82 57 98 21 29 70 177 89 269 6 30 15
100 20 155 10 116 4 456 -9 488 -7 17 -9 11 -9 -28z m-78 -790 c-7 -21 -12
-19 -10 4 0 11 5 18 9 15 4 -3 5 -11 1 -19z"/>
<path d="M1341 1084 c0 -11 3 -14 6 -6 3 7 2 16 -1 19 -3 4 -6 -2 -5 -13z"/>
<path d="M1371 964 c0 -11 3 -14 6 -6 3 7 2 16 -1 19 -3 4 -6 -2 -5 -13z"/>
<path d="M1384 939 c-3 -6 -2 -15 3 -20 5 -5 9 -1 9 11 0 23 -2 24 -12 9z"/>
<path d="M870 738 c0 -9 5 -20 10 -23 13 -8 13 5 0 25 -8 13 -10 13 -10 -2z"/>
<path d="M1491 608 c-1 -3 15 -48 35 -100 62 -158 102 -276 97 -281 -2 -3 10
-36 28 -73 17 -38 40 -88 50 -111 18 -42 39 -57 39 -28 0 8 -5 15 -11 15 -5 0
-7 5 -4 10 3 6 1 10 -5 10 -6 0 -9 4 -6 9 3 5 -8 40 -25 78 -39 85 -73 168
-106 258 -37 103 -91 227 -92 213z"/>
<path d="M3616 317 c-16 -40 -56 -126 -88 -191 -32 -65 -56 -121 -54 -123 5
-6 123 237 156 320 12 32 21 60 19 62 -3 2 -17 -29 -33 -68z"/>
<path d="M3262 325 c-17 -37 -14 -45 4 -12 9 16 14 31 11 33 -2 2 -9 -7 -15
-21z"/>
<path d="M2838 303 c7 -3 16 -2 19 1 4 3 -2 6 -13 5 -11 0 -14 -3 -6 -6z"/>
<path d="M629 273 c-13 -17 -13 -17 6 -3 11 8 22 16 24 17 2 2 0 3 -6 3 -6 0
-17 -8 -24 -17z"/>
<path d="M1600 251 c0 -6 4 -13 10 -16 6 -3 7 1 4 9 -7 18 -14 21 -14 7z"/>
<path d="M1734 248 c3 -9 10 -45 16 -80 18 -103 39 -168 55 -168 8 0 13 6 11
13 -32 102 -70 216 -77 232 -5 11 -7 12 -5 3z"/>
<path d="M2835 240 c-16 -7 -17 -9 -3 -9 9 -1 20 4 23 9 7 11 7 11 -20 0z"/>
<path d="M3215 208 c-10 -24 -33 -77 -52 -119 -18 -42 -33 -80 -33 -85 1 -15
58 101 85 172 28 75 28 98 0 32z"/>
<path d="M1995 140 c-3 -5 -1 -10 4 -10 6 0 11 5 11 10 0 6 -2 10 -4 10 -3 0
-8 -4 -11 -10z"/>
<path d="M2850 126 c0 -2 7 -7 16 -10 8 -3 12 -2 9 4 -6 10 -25 14 -25 6z"/>
<path d="M1958 103 c7 -3 16 -2 19 1 4 3 -2 6 -13 5 -11 0 -14 -3 -6 -6z"/>
<path d="M1190 70 c6 -11 13 -20 16 -20 2 0 0 9 -6 20 -6 11 -13 20 -16 20 -2
0 0 -9 6 -20z"/>
<path d="M2830 76 c0 -4 7 -14 15 -22 8 -9 15 -11 15 -6 0 5 -7 15 -15 22 -8
7 -15 9 -15 6z"/>
<path d="M1217 33 c-8 -12 9 -36 21 -32 7 3 6 10 -3 22 -7 10 -15 14 -18 10z"/>
<path d="M3771 21 c-9 -16 -8 -19 6 -17 20 3 28 21 14 30 -5 4 -15 -2 -20 -13z"/>
</g>
</svg>
